<svg width="77.000000" height="77.000000" viewBox="0 0 77 77" fill="none" xmlns="http://www.w3.org/2000/svg" xmlns:xlink="http://www.w3.org/1999/xlink">
	<defs>
		<clipPath id="clip3_25">
			<rect id="logo" width="55.439999" height="62.369999" transform="translate(10.779999 6.929932)" fill="white" fill-opacity="0"/>
		</clipPath>
		<filter id="filter_232_11539_dd" x="13.500000" y="17.500000" width="50.000000" height="50.000000" filterUnits="userSpaceOnUse" color-interpolation-filters="sRGB">
			<feFlood flood-opacity="0" result="BackgroundImageFix"/>
			<feColorMatrix in="SourceAlpha" type="matrix" values="0 0 0 0 0 0 0 0 0 0 0 0 0 0 0 0 0 0 127 0" result="hardAlpha"/>
			<feOffset dx="0" dy="4"/>
			<feGaussianBlur stdDeviation="1.33333"/>
			<feComposite in2="hardAlpha" operator="out" k2="-1" k3="1"/>
			<feColorMatrix type="matrix" values="0 0 0 0 0 0 0 0 0 0 0 0 0 0 0 0 0 0 0.25 0"/>
			<feBlend mode="normal" in2="BackgroundImageFix" result="effect_dropShadow_1"/>
			<feBlend mode="normal" in="SourceGraphic" in2="effect_dropShadow_1" result="shape"/>
		</filter>
		<clipPath id="clip232_11539">
			<rect id="LLM" width="42.000000" height="42.000000" transform="translate(17.500000 17.500000)" fill="white" fill-opacity="0"/>
		</clipPath>
		<clipPath id="clip2_24">
			<rect id="LLM" rx="28.000000" width="73.000000" height="73.000000" transform="translate(2.000000 2.000000)" fill="white" fill-opacity="0"/>
		</clipPath>
	</defs>
	<rect id="LLM" rx="28.000000" width="73.000000" height="73.000000" transform="translate(2.000000 2.000000)" fill="#000000" fill-opacity="1.000000"/>
	<g clip-path="url(#clip2_24)">
		<g opacity="0.500000">
			<g clip-path="url(#clip3_25)">
				<mask id="mask3_28" mask-type="alpha" maskUnits="userSpaceOnUse" x="10.779999" y="20.573486" width="55.440002" height="31.185059">
					<rect id="rect" x="10.779999" y="20.573486" width="55.439999" height="31.184996" fill="#000000" fill-opacity="1.000000"/>
				</mask>
				<g mask="url(#mask3_28)">
					<path id="path" d="M56.26 49.47C57.09 49.41 58.03 49.58 58.65 49.33C59.22 49.61 59.96 49.14 60.54 49.26C60.94 49.34 60.95 49.69 61.34 49.75C62.34 48.84 63.05 47.59 63.96 46.55C63.86 46.15 63.8 45.69 63.71 45.27L63.35 44.63C63.22 44.63 63.09 44.63 62.97 44.63C62.93 44.32 62.87 44.01 62.73 43.76C62.49 43.82 62.37 43.77 62.12 43.76C61.85 43.75 61.59 43.84 61.45 43.76C61.01 43.45 60.56 42.95 60.05 42.41C59.74 42.08 58.93 41.25 58.52 41.2C58.11 41.15 57.64 41.47 57.18 41.62C56.72 41.77 56.18 41.98 55.77 42.05C54.9 42.2 53.87 42.15 52.9 42.2C46.83 42.43 40.11 42.95 34.18 43.04C41.59 38.44 49.14 33.31 56.57 28.6C57.13 28.25 57.84 27.67 58.22 27.61C58.77 27.51 59.46 27.74 59.99 27.81C60.59 27.91 61.15 28 61.64 28.17C63.11 27.22 64.77 26.47 66.22 25.47C65.89 25.31 65.65 25.05 65.42 24.75C65.43 24.7 65.43 24.64 65.42 24.58C65.69 24.44 65.95 24.3 66.21 24.17C65.77 23.5 64.95 23.08 64.17 22.57C64.11 22.49 63.97 22.4 64.05 22.27C63.24 21.69 62.47 21.07 61.61 20.56C60.76 20.9 60.32 21.23 59.46 21.56C59.32 21.64 59.1 21.38 58.91 21.34C57.66 22.28 56.31 22.95 54.94 23.62C53.87 24.16 52.86 24.77 52.01 25.4C51.71 25.63 51.36 25.83 51.04 26.05L50.19 26.78C39.76 32.87 31.27 37.18 21.21 42.55C21.38 42.69 21.56 42.79 21.68 43L17.31 44.83C16.05 45.63 13.97 46.54 12.25 45.9C11.7 46.17 11.18 46.47 10.77 46.89C11.28 47.2 11.82 47.51 12.38 47.83C12.29 47.87 12.21 47.92 12.13 47.97C13.8 48.87 15.74 49.97 17.5 50.82C18.12 51.13 18.8 51.51 19.39 51.67C19.85 51.81 20.33 51.71 20.8 51.67C22.75 51.57 24.6 51.44 26.47 51.25C27.55 51.14 28.66 50.89 29.71 50.9C31.44 50.9 33.16 50.96 34.9 50.96C36.65 50.96 38.43 50.7 40.21 50.61C43.7 50.43 47.29 50.22 50.89 49.97C52.71 49.84 54.52 49.61 56.26 49.47Z" fill="#00F0FF" fill-opacity="1.000000" fill-rule="evenodd"/>
				</g>
			</g>
		</g>
		<g filter="url(#filter_232_11539_dd)">
			<rect id="LLM" width="42.000000" height="42.000000" transform="translate(17.500000 17.500000)" fill="#FFFFFF" fill-opacity="0"/>
			<g clip-path="url(#clip232_11539)">
				<path id="LLM" d="M32.0876 21.8445Q32.1035 21.7163 32.1278 21.5894Q32.199 21.217 32.3415 20.8584Q32.5066 20.4426 32.7527 20.0825L32.7528 20.0823Q32.8424 19.9512 32.9428 19.8271Q33.2542 19.4429 33.6415 19.1638L33.6415 19.1638L33.6436 19.1624L33.6436 19.1624Q33.7472 19.0876 33.8562 19.0208Q34.1413 18.8455 34.449 18.7305L34.449 18.7305L34.4491 18.7305L34.4491 18.7305Q34.7397 18.6221 35.0504 18.5676Q35.9801 18.4048 36.8074 18.6255L36.8074 18.6255Q36.8519 18.6375 36.8961 18.6504Q37.3013 18.7693 37.6577 18.9736L37.6578 18.9736Q38.0127 19.177 38.3192 19.4646Q38.5256 19.6584 38.698 19.8789L38.6982 19.8792Q38.9989 20.2637 39.1961 20.729Q39.3929 21.1931 39.461 21.6753L39.461 21.6753Q39.4972 21.9312 39.4972 22.1919L39.4972 26.0623L42.0325 26.0623L42.0325 22.8123Q42.0325 22.6567 42.0874 22.5242Q42.1424 22.3916 42.2522 22.2817Q42.362 22.1719 42.4946 22.1172Q42.6272 22.0623 42.7825 22.0623L46.2111 22.0623C46.2296 22.0623 46.248 22.0627 46.2662 22.064C46.6702 20.7288 47.9103 19.7566 49.3775 19.7566C51.1724 19.7566 52.6275 21.2117 52.6275 23.0066C52.6275 24.8015 51.1724 26.2566 49.3775 26.2566C47.772 26.2566 46.4384 25.0923 46.1748 23.5623L43.5325 23.5623L43.5325 26.8123Q43.5325 26.9675 43.4776 27.1001Q43.4227 27.2327 43.3128 27.3425Q43.203 27.4524 43.0704 27.5073Q42.9378 27.5623 42.7825 27.5623L39.4972 27.5623L39.4972 29.6699L50.4095 29.6699C50.7776 28.2788 52.0449 27.2534 53.5517 27.2534C55.3466 27.2534 56.8017 28.7083 56.8017 30.5034C56.8017 32.2983 55.3466 33.7534 53.5517 33.7534C51.9852 33.7534 50.6776 32.645 50.3701 31.1699L39.4972 31.1699L39.4972 33.97L42.0682 33.97Q42.2236 33.97 42.3561 34.0249Q42.4887 34.0796 42.5986 34.1895Q42.7084 34.2993 42.7633 34.4319Q42.8182 34.5645 42.8182 34.72L42.8182 37.3599L46.1905 37.3599C46.4879 35.8716 47.8017 34.7502 49.3775 34.7502C51.1724 34.7502 52.6275 36.2053 52.6275 38.0002C52.6275 39.7952 51.1724 41.2502 49.3775 41.2502C47.8799 41.2502 46.619 40.2373 46.2422 38.8594C46.2319 38.8596 46.2215 38.8599 46.2111 38.8599L42.0682 38.8599Q41.9129 38.8599 41.7803 38.8049Q41.6477 38.75 41.5379 38.6401Q41.4281 38.5303 41.3731 38.3977Q41.3182 38.2651 41.3182 38.1099L41.3182 35.47L39.4972 35.47L39.4972 45.1382L50.8835 45.1382C51.0621 43.512 52.4403 42.2471 54.1139 42.2471C55.9088 42.2471 57.3639 43.7021 57.3639 45.4971C57.3639 47.292 55.9088 48.7471 54.1139 48.7471C52.7205 48.7471 51.532 47.8701 51.0699 46.6382L39.4972 46.6382L39.4972 49.438L43.1311 49.438Q43.2864 49.438 43.419 49.4929Q43.5516 49.5479 43.6614 49.6577Q43.7713 49.7676 43.8262 49.9001Q43.8811 50.0327 43.8811 50.188L43.8811 52.438L45.9112 52.438C46.1748 50.9077 47.5084 49.7437 49.1139 49.7437C50.9088 49.7437 52.3639 51.1987 52.3639 52.9937C52.3639 54.7886 50.9088 56.2437 49.1139 56.2437C47.6474 56.2437 46.4077 55.2725 46.0032 53.938L43.1311 53.938Q42.9758 53.938 42.8432 53.8831Q42.7106 53.8281 42.6008 53.7183Q42.4909 53.6084 42.436 53.4758Q42.3811 53.3433 42.3811 53.188L42.3811 50.938L39.4972 50.938L39.4972 54.3252Q39.4972 54.4971 39.4771 54.6663L39.4771 54.6667L39.477 54.667L39.477 54.667Q39.4103 55.2285 39.1232 55.7639Q38.92 56.1426 38.6376 56.448L38.6376 56.448Q38.3899 56.7161 38.0812 56.9275Q37.7745 57.1379 37.4373 57.2708L37.4355 57.2715L37.4354 57.2715Q36.976 57.4521 36.4601 57.4895Q35.4983 57.5588 34.4808 57.1099Q34.2956 57.0281 34.1238 56.9241L34.1235 56.9238L34.123 56.9236Q33.8069 56.7319 33.5366 56.4646Q33.4892 56.4177 33.4438 56.3691Q33.4368 56.3616 33.4298 56.354L33.4295 56.3535Q33.1068 56.0037 32.8835 55.562Q32.8317 55.4595 32.7863 55.354L32.7853 55.3518L32.7845 55.3499Q32.654 55.0461 32.5771 54.7192Q32.3978 54.7949 32.2129 54.8528Q31.8056 54.9805 31.3716 55.0227Q30.7782 55.0803 30.2196 54.967L30.2193 54.9668Q29.9756 54.9175 29.7386 54.8352Q29.5312 54.7634 29.3349 54.6687L29.3291 54.6658Q28.6821 54.3516 28.1569 53.7869Q27.7598 53.3599 27.5272 52.8567Q27.3404 52.4529 27.2597 52Q27.2419 51.9004 27.2296 51.8L27.2293 51.7981L27.2291 51.7959L27.229 51.7957Q27.2219 51.7371 27.2166 51.678Q26.9318 51.6904 26.6304 51.6292Q26.197 51.5408 25.786 51.3123Q25.5872 51.2017 25.4073 51.0659L25.4072 51.0659L25.4064 51.0652L25.4063 51.0652Q25.2176 50.9224 25.0499 50.752Q24.7496 50.4465 24.5504 50.0854L24.5501 50.085Q24.5182 50.0271 24.4888 49.9678Q24.333 49.6523 24.2618 49.3191Q24.2262 49.1528 24.2117 48.9819Q24.202 48.8669 24.202 48.7524Q24.202 48.7344 24.2022 48.7166Q24.2024 48.7083 24.2025 48.6997Q23.7133 48.5815 23.2504 48.2878Q22.9497 48.0972 22.6968 47.8564L22.6967 47.8562L22.6966 47.8562Q22.3441 47.5205 22.0842 47.0876Q21.7415 46.5166 21.6399 45.9055Q21.6019 45.677 21.5975 45.4429Q21.597 45.4133 21.597 45.384Q21.597 44.989 21.6954 44.6204Q21.7695 44.3428 21.8994 44.0801Q21.8064 44.0413 21.7139 43.9978Q21.1429 43.7285 20.7007 43.3223Q20.3917 43.0386 20.1606 42.7014Q19.9797 42.4375 19.8466 42.1409Q19.5001 41.3689 19.5 40.4226L19.5 40.4224Q19.5 39.9585 19.6183 39.5269L19.6183 39.5269L19.6184 39.5269L19.6184 39.5266L19.6184 39.5266Q19.7033 39.2173 19.849 38.9243Q20.011 38.5989 20.2336 38.322L20.2336 38.322L20.2343 38.321L20.2346 38.3208L20.2346 38.3208Q20.4641 38.0356 20.758 37.8022Q20.8676 37.7153 20.9817 37.6389Q20.8647 37.4709 20.769 37.2773Q20.612 36.9597 20.5301 36.624Q20.4409 36.2578 20.4409 35.8701Q20.4409 35.8354 20.4416 35.8005Q20.4538 35.2041 20.6772 34.7014Q20.7886 34.4507 20.9526 34.2234Q21.0736 34.0554 21.2172 33.9097L21.2172 33.9097Q21.5844 33.5369 22.0988 33.3088Q22.08 33.2646 22.0623 33.2195Q21.7797 32.4983 21.7797 31.8127Q21.7797 31.6738 21.7913 31.5364Q21.8263 31.1218 21.9635 30.7444L21.9635 30.7444Q22.0805 30.4224 22.2718 30.1277Q22.3729 29.9719 22.4905 29.8298L22.4906 29.8298Q22.8091 29.4456 23.2491 29.1616Q23.5425 28.9727 23.86 28.8467Q23.7607 28.4727 23.7369 28.0742Q23.7298 27.9553 23.7298 27.8386Q23.7298 27.3308 23.8636 26.8613L23.8636 26.8613Q23.9575 26.5322 24.117 26.2222Q24.2381 25.9866 24.3913 25.7742L24.3913 25.7742Q24.8578 25.1277 25.622 24.6958L25.6737 24.6667L25.7292 24.646Q26.9366 24.1965 27.9807 24.3711Q28.2325 23.5837 28.7322 23.0181Q28.9294 22.7949 29.159 22.6125L29.159 22.6123L29.159 22.6123Q29.6135 22.2515 30.1949 22.0503Q30.8895 21.8101 31.6884 21.8228Q31.893 21.8259 32.0876 21.8445ZM36.233 51.2766Q35.1717 51.5325 34.5789 52.199Q34.3343 52.4739 34.1879 52.7937L34.1878 52.7937L34.1878 52.7939Q34.0299 53.1389 33.9863 53.5359Q33.9713 53.6726 33.9713 53.8086Q33.9713 53.8606 33.9734 53.9124L33.9735 53.9141L33.9737 53.9185Q33.981 54.0808 34.0097 54.2419Q34.0691 54.5757 34.2133 54.8674Q34.2177 54.8765 34.2222 54.8853Q34.447 55.3301 34.807 55.5808Q34.9377 55.6719 35.0863 55.7375Q35.7625 56.0359 36.3522 55.9934Q36.666 55.9707 36.9388 55.853L36.9389 55.853L36.9403 55.8523Q37.0932 55.7864 37.2332 55.6904Q37.3908 55.5823 37.5196 55.4468L37.5203 55.4458Q37.6844 55.2727 37.8014 55.0547Q37.9972 54.6897 37.9972 54.3252L37.9972 45.0764Q37.6949 45.0112 37.4003 44.9214L37.4002 44.9214Q36.5615 44.6658 35.7837 44.2102Q35.7627 44.198 35.7419 44.1855L35.7416 44.1855Q34.836 43.6477 34.0711 42.8728Q33.4023 42.1956 32.9267 41.4294Q32.4911 40.7278 32.3347 40.1514C32.3163 40.0835 32.3075 40.0154 32.3075 39.949C32.3075 39.6187 32.5249 39.3228 32.8623 39.2312C33.2676 39.1213 33.6725 39.3533 33.7824 39.7588Q33.8813 40.123 34.201 40.6382Q34.4626 41.0596 34.7991 41.4509Q35.0932 40.9365 35.0932 40.2395Q35.0932 40.0479 35.071 39.8425Q35.0173 39.3469 34.84 38.8318Q34.6931 38.4053 34.5051 38.0786C34.4357 37.958 34.4026 37.8281 34.4026 37.7004C34.4026 37.4426 34.5375 37.1946 34.7809 37.0544C35.1449 36.845 35.5955 36.9663 35.8051 37.3303Q36.0646 37.7812 36.2582 38.3435Q36.4905 39.0178 36.5623 39.6809Q36.5929 39.9636 36.5929 40.2341Q36.5929 40.7449 36.4838 41.2124Q36.3571 41.7556 36.0892 42.2168L36.0892 42.2168L36.089 42.2173L36.0889 42.2173Q36.006 42.3599 35.9096 42.4949Q36.215 42.7246 36.5417 42.9158Q37.2127 43.3088 37.9369 43.5159L37.937 43.5159L37.9374 43.5159Q37.9672 43.5244 37.9972 43.5327L37.9972 22.1919Q37.9972 22.0818 37.9861 21.9729L37.9861 21.9727Q37.9524 21.6384 37.8151 21.3145Q37.6795 20.9944 37.4655 20.7407L37.4654 20.7405Q37.3845 20.6445 37.2924 20.5581Q37.1164 20.3928 36.9126 20.2761L36.9126 20.2761L36.9125 20.2759L36.9121 20.2759Q36.7069 20.1582 36.4735 20.0896Q35.9437 19.9341 35.3093 20.0452Q35.1398 20.075 34.981 20.1333L34.981 20.1333L34.9809 20.1333Q34.8049 20.1982 34.6419 20.2983Q34.6367 20.3018 34.6315 20.3049Q34.3383 20.4875 34.1082 20.7715Q34.0786 20.8081 34.0505 20.8457L34.0504 20.8459L34.0504 20.8459Q33.8583 21.103 33.7356 21.4121Q33.6345 21.6665 33.5905 21.9307Q33.5735 22.0332 33.565 22.137Q33.5571 22.2349 33.5571 22.3306Q33.5571 22.5991 33.6196 22.8508Q33.6874 23.1238 33.8244 23.356L33.8244 23.356Q33.8616 23.4189 33.9039 23.479Q33.9461 23.5391 33.9928 23.5955Q34.4519 24.1487 35.3414 24.345C35.6952 24.4229 35.9307 24.7263 35.9307 25.0715C35.9307 25.1265 35.9247 25.1826 35.9123 25.2388C35.8218 25.6489 35.4284 25.9001 35.0183 25.8098Q34.2419 25.6384 33.6408 25.2556Q33.2131 24.9834 32.8929 24.6172L32.8929 24.6169L32.8929 24.6169L32.8928 24.6169Q32.7783 24.4858 32.6775 24.3428Q32.5553 24.1694 32.4569 23.9834L32.4569 23.9834Q32.304 23.6943 32.2083 23.3748Q31.9571 23.3271 31.6649 23.3225Q31.13 23.3142 30.6852 23.468Q30.3159 23.5957 30.0401 23.8323L30.04 23.8325Q29.5709 24.2351 29.3725 24.9531Q29.703 25.1951 29.9735 25.521Q30.0963 25.6687 30.2029 25.8276L30.203 25.8276L30.2031 25.8279L30.2031 25.8279Q30.6356 26.4724 30.8008 27.2964Q30.8657 27.6199 30.8815 27.946Q30.8866 28.0508 30.8866 28.156Q30.8866 28.2075 30.8853 28.2593Q30.8737 28.7522 30.7515 29.2068C30.6425 29.6125 30.2383 29.8455 29.8326 29.7366C29.4944 29.6458 29.2761 29.3494 29.2761 29.0183C29.2761 28.9524 29.2848 28.885 29.3029 28.8176Q29.3186 28.759 29.3315 28.6997Q29.3885 28.4368 29.3885 28.1614Q29.3885 27.8826 29.3301 27.5913Q29.2028 26.9568 28.8433 26.5083L28.8433 26.5083L28.8429 26.5078Q28.8313 26.4934 28.8194 26.479Q28.5882 26.2004 28.2928 26.04L28.2927 26.04Q28.0918 25.9309 27.8612 25.8762Q27.1872 25.717 26.3094 26.031Q25.7802 26.344 25.5063 26.8076L25.5063 26.8076Q25.4772 26.8569 25.451 26.908Q25.3839 27.0383 25.3372 27.1758L25.3371 27.176Q25.2299 27.4912 25.2299 27.843Q25.2299 27.9133 25.2342 27.9849Q25.2534 28.3069 25.3523 28.6021L25.3524 28.6023L25.3524 28.6023L25.3526 28.6028Q25.4258 28.821 25.5425 29.0244Q25.7981 29.4702 26.1564 29.6643C26.4095 29.8013 26.5516 30.0544 26.5516 30.3191C26.5516 30.4407 26.5217 30.5647 26.4588 30.6809C26.2588 31.05 25.8115 31.1831 25.4421 30.9832Q25.0721 30.783 24.7583 30.4607Q24.6379 30.3369 24.5297 30.1995Q24.4996 30.2092 24.4699 30.2197Q24.2571 30.2966 24.062 30.4224Q23.7578 30.6184 23.5648 30.8928L23.5647 30.8931Q23.5469 30.9182 23.5301 30.9441Q23.4413 31.0811 23.384 31.23L23.3837 31.2307L23.3836 31.231Q23.3051 31.4353 23.286 31.6626Q23.2798 31.7358 23.2798 31.8108Q23.2798 32.2151 23.459 32.6724Q23.5629 32.9377 23.7378 33.1426L23.7379 33.1426Q23.8816 33.311 24.0732 33.4385Q24.1095 33.4626 24.1469 33.4849L24.1475 33.4854L24.1476 33.4854Q24.5271 33.7124 25.0161 33.7563Q25.4445 33.7949 25.8307 33.6851Q25.9177 33.6604 26.0025 33.6282Q26.4312 33.4651 26.6396 33.1694C26.8816 32.8262 27.3415 32.7468 27.6848 32.9888C27.8941 33.1365 28.0054 33.365 28.0054 33.5989C28.0054 33.7483 27.9599 33.8999 27.8655 34.0339Q27.7786 34.1572 27.6785 34.269L27.6785 34.269L27.6785 34.269L27.6784 34.269Q27.235 34.7644 26.5356 35.0303Q26.294 35.1221 26.0444 35.1782L26.0424 35.1787L26.0423 35.1787Q25.4822 35.3044 24.8817 35.2505Q24.2016 35.1892 23.6285 34.9089Q23.4289 34.8115 23.2422 34.6873Q23.1462 34.6233 23.0565 34.5542C23.0288 34.5659 23.0001 34.5762 22.9705 34.5847Q22.4268 34.7437 22.1692 35.1008Q22.1364 35.1462 22.1083 35.1943Q21.9487 35.4685 21.9413 35.8313Q21.9409 35.8499 21.9409 35.8684Q21.9409 36.0898 21.9953 36.2971L21.9953 36.2971Q22.0378 36.4592 22.1136 36.6125Q22.1916 36.7703 22.2894 36.8787Q22.3654 36.9629 22.4334 36.9966C22.4943 37.0269 22.5492 37.0637 22.5977 37.106Q22.7361 37.1003 22.8737 37.1077Q23.1811 37.1243 23.4849 37.2065C23.8224 37.2981 24.0399 37.594 24.0399 37.9246C24.0399 37.991 24.0311 38.0588 24.0128 38.1267C23.903 38.532 23.4982 38.7642 23.0928 38.6545Q22.9703 38.6213 22.8458 38.6101L22.8457 38.6101Q22.6116 38.5886 22.3705 38.6448Q22.2692 38.6682 22.1723 38.7039L22.1723 38.7039Q21.916 38.7981 21.6908 38.9768Q21.5275 39.1067 21.4003 39.2654L21.3999 39.2661Q21.2797 39.4163 21.1919 39.5928Q21.1245 39.7283 21.0807 39.8711L21.0807 39.8711L21.0807 39.8711Q21 40.1345 21 40.4224L21 40.4226Q21.0001 41.2612 21.3885 41.8386L21.3886 41.8389Q21.5273 42.0449 21.7153 42.2175Q21.9893 42.4692 22.3536 42.6409Q22.6388 42.7754 22.922 42.8379C22.9767 42.8499 23.0285 42.8674 23.0771 42.8896Q23.2977 42.77 23.5401 42.6848Q23.7912 42.5967 24.0498 42.5508L24.0508 42.5508L24.0509 42.5508Q24.5267 42.4666 25.0278 42.5251Q25.517 42.5825 25.9532 42.7659L25.9535 42.7661L25.9537 42.7661Q26.174 42.8586 26.3808 42.9836Q26.9216 43.3098 27.2493 43.7837L27.2494 43.7837L27.2495 43.7839L27.2497 43.7842L27.2498 43.7844Q27.3189 43.8843 27.3786 43.991C27.4449 44.1096 27.4765 44.2368 27.4765 44.3616C27.4765 44.6226 27.3382 44.873 27.0902 45.0117C26.7237 45.2168 26.2746 45.0898 26.0695 44.7234Q25.9211 44.458 25.6058 44.2678Q25.5357 44.2256 25.4622 44.1897L25.4621 44.1897Q25.1814 44.0535 24.8531 44.0149Q24.5239 43.9763 24.2199 44.0469L24.2188 44.0474L24.2187 44.0474Q24.1266 44.0688 24.0367 44.1003Q23.8811 44.1548 23.7419 44.2373Q23.5279 44.3643 23.353 44.5571Q23.1944 44.7959 23.1341 45.0574Q23.097 45.2178 23.097 45.3867Q23.097 45.4009 23.0973 45.4153Q23.0981 45.4597 23.1013 45.5042Q23.1314 45.9175 23.3704 46.3157Q23.5389 46.5964 23.7714 46.8066L23.7716 46.8069L23.7716 46.8069Q23.9026 46.9253 24.0538 47.0212Q24.3367 47.2007 24.6224 47.2554Q24.7609 47.0139 24.9444 46.7798C25.2034 46.449 25.6667 46.3928 25.9973 46.6519C26.1884 46.8015 26.2878 47.0193 26.2878 47.2402C26.2878 47.4019 26.2346 47.5652 26.1253 47.7046Q25.7021 48.2449 25.7021 48.7529Q25.7021 48.7991 25.7056 48.845Q25.706 48.8501 25.7064 48.8552Q25.7151 48.9578 25.74 49.0562L25.7402 49.0571L25.7403 49.0571Q25.8286 49.4043 26.1194 49.7002Q26.2117 49.7939 26.3158 49.8721L26.3158 49.8721L26.316 49.8723Q26.4106 49.9434 26.5151 50.0015Q26.7233 50.1172 26.9294 50.1592Q27.1093 50.1958 27.2476 50.1682Q27.3321 50.1514 27.391 50.1104Q27.4907 49.7812 27.6348 49.4731L27.6349 49.4729L27.6349 49.4727L27.6353 49.4719Q27.8504 49.0122 28.1644 48.5989Q28.7129 47.8767 29.4058 47.5015C29.7751 47.3015 30.2224 47.4346 30.4224 47.804C30.4853 47.9202 30.5153 48.0439 30.5153 48.1655C30.5153 48.4302 30.3731 48.6836 30.12 48.8206Q29.7117 49.0415 29.3589 49.5061Q29.1288 49.8091 28.976 50.147Q28.8805 50.3584 28.8152 50.5833Q28.7017 50.9744 28.7017 51.3403Q28.7017 51.5422 28.7364 51.7366Q28.7784 51.9724 28.8716 52.1863L28.8717 52.1863L28.8717 52.1865Q29.0085 52.5 29.2554 52.7654Q29.6522 53.1921 30.1412 53.3853L30.1412 53.3853L30.143 53.386Q30.1859 53.4028 30.2294 53.418Q30.3148 53.4475 30.4021 53.47L30.4022 53.47L30.4026 53.4702L30.403 53.4702Q30.7962 53.5715 31.2263 53.5298Q31.5279 53.5002 31.8083 53.407L31.8084 53.407L31.8086 53.407L31.8087 53.407Q31.9654 53.3547 32.1154 53.2827Q32.3964 53.1475 32.5544 52.998Q32.5873 52.8394 32.6332 52.6846L32.6332 52.6846L32.6334 52.6838L32.6334 52.6838L32.6335 52.6833Q32.7004 52.4578 32.7946 52.2405Q32.9013 51.9941 33.0396 51.7668L33.0399 51.7664Q33.2218 51.4675 33.4582 51.2019Q33.5802 51.0647 33.7133 50.9395L33.7134 50.9395Q34.5679 50.135 35.8813 49.8184C36.2896 49.72 36.6878 49.9634 36.7863 50.3716C36.801 50.4329 36.8081 50.4937 36.8081 50.5535C36.8081 50.8926 36.5801 51.1929 36.233 51.2766ZM49.3775 21.2566C48.411 21.2566 47.6275 22.04 47.6275 23.0066C47.6275 23.9729 48.411 24.7566 49.3775 24.7566C50.344 24.7566 51.1275 23.9729 51.1275 23.0066C51.1275 22.04 50.344 21.2566 49.3775 21.2566ZM32.4818 26.958Q33.0504 26.9089 33.6897 27.0811Q33.8231 27.1169 33.9537 27.1614Q34.5503 27.3635 35.0876 27.7405Q35.8534 28.2776 36.4116 29.1135Q37.0383 30.0522 37.368 31.3201C37.385 31.3855 37.3931 31.4509 37.3931 31.5149C37.3931 31.8486 37.1718 32.146 36.8308 32.2346C36.4243 32.3403 36.0219 32.104 35.9162 31.6975Q35.8106 31.291 35.6702 30.9312Q35.6178 30.9768 35.563 31.0208Q35.1247 31.3711 34.5525 31.5845Q34.0879 31.7578 33.5739 31.8279Q33.1421 31.8865 32.7642 31.863C32.3615 31.8381 32.0605 31.5144 32.0605 31.1172C32.0605 31.1011 32.061 31.0847 32.062 31.0681C32.088 30.6489 32.4378 30.3401 32.857 30.366Q33.0869 30.3804 33.3718 30.3416Q33.7201 30.2942 34.0282 30.1792Q34.5912 29.9692 34.8914 29.5823Q34.5896 29.2234 34.2263 28.9685Q33.7983 28.6685 33.3236 28.5361L33.3235 28.5361Q33.3192 28.5349 33.3149 28.5337Q33.3117 28.5327 33.3086 28.532Q33.3042 28.5308 33.2997 28.5295Q32.9159 28.4263 32.6108 28.4526C32.1924 28.4888 31.8352 28.1882 31.7991 27.7698C31.7971 27.7471 31.7961 27.7244 31.7961 27.7019C31.7961 27.3132 32.0862 26.9922 32.4818 26.958ZM53.5517 28.7534C52.5852 28.7534 51.8017 29.5369 51.8017 30.5034C51.8017 31.4697 52.5852 32.2534 53.5517 32.2534C54.5182 32.2534 55.3017 31.4697 55.3017 30.5034C55.3017 29.5369 54.5182 28.7534 53.5517 28.7534ZM28.857 32.5078C28.4817 32.4507 28.2198 32.1377 28.2198 31.7715C28.2198 31.7327 28.2227 31.6931 28.2289 31.6533C28.2923 31.238 28.6683 30.9617 29.0835 31.0251Q29.6862 31.1172 30.3175 31.4167Q30.7555 31.6248 31.141 31.905L31.1411 31.905Q31.414 32.1033 31.6605 32.3379Q31.9653 32.6277 32.2145 32.9592Q32.5464 33.4009 32.7798 33.9163Q33.2449 34.9434 33.2871 36.2007C33.2874 36.2095 33.2876 36.2185 33.2876 36.2273C33.2876 36.6348 32.9735 36.9617 32.5627 36.9753C32.1429 36.9895 31.8021 36.6707 31.788 36.251Q31.7557 35.291 31.4134 34.5349Q31.2404 34.1531 30.9915 33.8293L30.9911 33.8289Q30.8257 33.614 30.6268 33.4248Q30.467 33.2727 30.2913 33.1421L30.2912 33.1421Q30.0039 32.9285 29.6742 32.772Q29.2419 32.5667 28.857 32.5078ZM49.3775 36.2502C48.411 36.2502 47.6275 37.0337 47.6275 38.0002C47.6275 38.9666 48.411 39.7502 49.3775 39.7502C50.344 39.7502 51.1275 38.9666 51.1275 38.0002C51.1275 37.0337 50.344 36.2502 49.3775 36.2502ZM23.8982 39.9148Q24.2618 39.3284 24.8617 38.8064Q25.2293 38.4866 25.6391 38.2356L25.6392 38.2356L25.6392 38.2356Q26.0218 38.0015 26.4411 37.8271Q26.8132 37.6726 27.1994 37.572L27.1995 37.572L27.1995 37.572L27.1995 37.572Q27.8866 37.3933 28.6182 37.3862Q29.9191 37.3733 31.2828 37.9065C31.5816 38.0234 31.7614 38.3005 31.7614 38.5991C31.7614 38.6914 31.7442 38.7859 31.7081 38.8782C31.5551 39.2693 31.1276 39.4565 30.7365 39.3035Q29.8773 38.9675 29.0692 38.9019Q29.1572 39.3452 29.1874 39.7864Q29.2029 40.0122 29.2029 40.2283Q29.2029 41.3652 28.773 42.2205C28.5844 42.5957 28.1413 42.7424 27.766 42.5537C27.5016 42.4207 27.3506 42.1614 27.3506 41.8884C27.3506 41.7742 27.3771 41.6575 27.4328 41.5466Q27.7029 41.0093 27.7029 40.229Q27.7029 40.0645 27.6909 39.8889Q27.6629 39.48 27.571 39.0654Q27.5669 39.0469 27.5625 39.0278Q27.5321 39.0359 27.5019 39.0442L27.5018 39.0444Q27.255 39.1133 27.0166 39.2124Q26.7109 39.3394 26.4315 39.5095L26.4315 39.5095L26.4296 39.5107Q26.1219 39.6982 25.8463 39.938Q25.4173 40.3113 25.1731 40.7051C24.9518 41.0623 24.4975 41.1687 24.1405 40.9475C23.9092 40.8042 23.783 40.563 23.783 40.3137C23.783 40.1782 23.8203 40.0405 23.8982 39.9148ZM54.1139 43.7471C53.1474 43.7471 52.3639 44.5305 52.3639 45.4971C52.3639 46.4634 53.1474 47.2471 54.1139 47.2471C55.0804 47.2471 55.8639 46.4634 55.8639 45.4971C55.8639 44.5305 55.0804 43.7471 54.1139 43.7471ZM31.5079 45.5847C31.1414 45.5186 30.8906 45.2095 30.8906 44.8521C30.8906 44.8064 30.8947 44.76 30.9031 44.7134C30.9777 44.3 31.3611 44.0339 31.7744 44.1084Q32.3298 44.2087 32.9254 44.4482Q33.6405 44.7358 34.2261 45.1562Q34.9453 45.6729 35.3914 46.3384Q35.6637 46.7449 35.8243 47.1914L35.8245 47.1919L35.8245 47.1919L35.8245 47.1919Q35.9771 47.6165 36.0287 48.0774C36.032 48.1069 36.0337 48.1362 36.0337 48.165C36.0337 48.5447 35.7547 48.8628 35.3668 48.9062C34.9494 48.9529 34.5847 48.6616 34.5381 48.2444Q34.5056 47.9541 34.4084 47.6877L34.4084 47.6875Q34.3389 47.4968 34.2364 47.3184Q34.1185 47.4448 33.9918 47.561Q33.2641 48.2275 32.439 48.3857L32.4389 48.3857L32.4373 48.386Q32.4041 48.3923 32.3707 48.3979C31.9564 48.4663 31.5769 48.1946 31.5084 47.7803C31.5013 47.7373 31.4978 47.6946 31.4978 47.6526C31.4978 47.2905 31.7546 46.9795 32.126 46.918Q32.5496 46.8479 32.9786 46.4548Q33.0813 46.3608 33.1758 46.2554Q32.806 46.0168 32.3658 45.8398Q31.9124 45.6577 31.5079 45.5847ZM49.1139 51.2437C48.1474 51.2437 47.3639 52.0271 47.3639 52.9937C47.3639 53.9602 48.1474 54.7437 49.1139 54.7437C50.0804 54.7437 50.8639 53.9602 50.8639 52.9937C50.8639 52.0271 50.0804 51.2437 49.1139 51.2437Z" clip-rule="evenodd" fill="#FFF000" fill-opacity="1.000000" fill-rule="evenodd"/>
			</g>
		</g>
	</g>
	<rect id="LLM" rx="28.000000" width="73.000000" height="73.000000" transform="translate(2.000000 2.000000)" stroke="#FFF000" stroke-opacity="1.000000" stroke-width="4.000000"/>
</svg>
